<svg xmlns="http://www.w3.org/2000/svg" xmlns:xlink="http://www.w3.org/1999/xlink" viewBox="0 0 11.49 11.49"><defs><style>.cls-1{fill:url(#linear-gradient);}.cls-2{fill:#fff;}</style><linearGradient id="linear-gradient" x1="0.03" y1="1.47" x2="11.25" y2="9.87" gradientUnits="userSpaceOnUse"><stop offset="0" stop-color="#4bbccb"/><stop offset="1" stop-color="#71d4d0"/></linearGradient></defs><g id="Layer_2" data-name="Layer 2"><g id="Layer_1-2" data-name="Layer 1"><rect class="cls-1" width="11.49" height="11.49" rx="2.07"/><path class="cls-2" d="M1.88,5.74A.35.35,0,0,1,2,5.49L4.66,2.82a.36.36,0,0,1,.5,0,.35.35,0,0,1,0,.5L2.73,5.74,5.16,8.17a.35.35,0,0,1-.5.5L2,6A.33.33,0,0,1,1.88,5.74Z"/><path class="cls-2" d="M1.88,5.74a.35.35,0,0,1,.35-.35h7a.36.36,0,0,1,0,.71h-7A.36.36,0,0,1,1.88,5.74Z"/></g></g></svg>