<?xml version="1.0" encoding="utf-8"?>
<!-- Generator: Adobe Illustrator 25.1.0, SVG Export Plug-In . SVG Version: 6.00 Build 0)  -->
<svg version="1.1" id="Layer_1" xmlns="http://www.w3.org/2000/svg" xmlns:xlink="http://www.w3.org/1999/xlink" x="0px" y="0px"
	 viewBox="0 0 11.5 11.5" style="enable-background:new 0 0 11.5 11.5;" xml:space="preserve">
<style type="text/css">
	.st0{fill:url(#SVGID_1_);}
	.st1{fill:#FFFFFF;}
</style>
<linearGradient id="SVGID_1_" gradientUnits="userSpaceOnUse" x1="3.599782e-02" y1="585.449" x2="11.1592" y2="593.7766" gradientTransform="matrix(1 0 0 1 0 -584)">
	<stop  offset="0" style="stop-color:#4BBCCB"/>
	<stop  offset="1" style="stop-color:#71D4D0"/>
</linearGradient>
<path class="st0" d="M2.1,0h7.3c1.1,0,2.1,0.9,2.1,2.1v7.3c0,1.1-0.9,2.1-2.1,2.1H2.1C0.9,11.4,0,10.5,0,9.3V2.1C0,0.9,0.9,0,2.1,0z
	"/>
<g>
	<path class="st1" d="M5.8,6.3c-0.6-0.2-1-0.5-1.4-0.8c0.2-0.2,0.4-0.4,0.5-0.6C5.2,4.4,5.3,4,5.4,3.7h0.5V3H4.3V2.6H3.6V3H1.9v0.7
		h2.7C4.6,3.9,4.5,4.2,4.3,4.5C4.2,4.7,4,4.9,3.9,5C3.6,4.7,3.5,4.5,3.4,4.4L2.8,4.7c0.1,0.2,0.3,0.5,0.6,0.8C3,5.8,2.5,6.1,2,6.3
		L2.2,7c0.7-0.3,1.3-0.6,1.7-1C4.4,6.4,5,6.7,5.6,7L5.8,6.3z"/>
	<path class="st1" d="M7.8,4.6H7.1L5.2,9h0.9l0.4-1.1h1.6L8.7,9h1L7.8,4.6z M6.9,7.1l0.5-1.3l0.5,1.3H6.9z"/>
</g>
</svg>
